<svg xmlns="http://www.w3.org/2000/svg" viewBox="0 0 283.46 283.46"><defs><style>.a{fill:#43b883;}.b{fill:#364a5e;}</style></defs><path class="a" d="M197.7,139.06a78.66,78.66,0,0,0-3.38-15.87,76.69,76.69,0,0,0-3.19-8.19,68.13,68.13,0,0,0-20.29-25.79,66,66,0,0,0-31-13,77.53,77.53,0,0,0-8.43-1.12q-3.78-.25-7.39-.25H32.84V223.42h109l2.75-2.41a73,73,0,0,0,9.68-2.85A62.58,62.58,0,0,0,170.9,209a65,65,0,0,0,12.92-13.42q14.44-20,14.44-46.43A87.51,87.51,0,0,0,197.7,139.06Zm-19.9,36.3a55.12,55.12,0,0,1-14.7,20.89,49.56,49.56,0,0,1-24,11.35q-4.12.69-8.17,1t-7,.34H47.29V89.29H124q2.92,0,7,.26a56.82,56.82,0,0,1,8.17,1.12,49.47,49.47,0,0,1,24,11.35,54.84,54.84,0,0,1,14,19.3c.23.52.45,1.05.67,1.59a67.18,67.18,0,0,1,3.81,13.1,71.62,71.62,0,0,1,1.18,13.12A69.22,69.22,0,0,1,177.8,175.36Z"/><path class="b" d="M248.89,168.22q-10.06-22.86-29-34.91a74.71,74.71,0,0,0-25.59-10.12,96.88,96.88,0,0,0-17.19-1.87c-.92,0-1.85,0-2.79,0q-26.47,0-45.48,11.78T99.63,166.85Q91.17,185,89.72,209c-.22,3.36-.32,6.8-.32,10.32,0,1.39,0,2.77,0,4.13H259Q259,191.1,248.89,168.22ZM105.21,209h0q2.1-32.34,17.89-51.32,18.22-21.93,51.24-21.93c2.49,0,4.91.09,7.27.29a71.5,71.5,0,0,1,16.09,3.05,56.37,56.37,0,0,1,26.94,18.07Q240.24,175.88,243,209Z"/></svg>