<svg xmlns="http://www.w3.org/2000/svg" viewBox="0 0 411.02 411.02"><defs><style>.a{fill:#43b883;}.b{fill:#364a5e;}.c{opacity:0.7;}</style></defs><path class="a" d="M257.32,159.17a78.66,78.66,0,0,0-3.38-15.87,76.69,76.69,0,0,0-3.19-8.19,68.13,68.13,0,0,0-20.29-25.79,66,66,0,0,0-31-13A77.53,77.53,0,0,0,191,95.21Q187.21,95,183.6,95H92.46V243.53h109l2.75-2.41a73,73,0,0,0,9.68-2.85,62.58,62.58,0,0,0,16.61-9.18,65,65,0,0,0,12.92-13.42q14.44-19.95,14.44-46.43A87.51,87.51,0,0,0,257.32,159.17Zm-19.9,36.3a55.12,55.12,0,0,1-14.7,20.89,49.56,49.56,0,0,1-24,11.35q-4.12.69-8.17,1t-7,.34H106.91V109.4H183.6q2.93,0,7,.26a56.82,56.82,0,0,1,8.17,1.12,49.47,49.47,0,0,1,24,11.35,54.84,54.84,0,0,1,14,19.3c.23.52.45,1,.67,1.59a67.18,67.18,0,0,1,3.81,13.1,71.62,71.62,0,0,1,1.18,13.12A69.22,69.22,0,0,1,237.42,195.47Z"/><path class="b" d="M308.51,188.33q-10.06-22.86-29-34.91a74.71,74.71,0,0,0-25.59-10.12,96.88,96.88,0,0,0-17.19-1.87c-.92,0-1.85,0-2.79,0q-26.47,0-45.48,11.78T159.25,187q-8.46,18.18-9.91,42.12c-.22,3.36-.32,6.8-.32,10.32,0,1.39,0,2.77,0,4.13h169.5Q318.57,211.21,308.51,188.33ZM164.83,229.09h0q2.1-32.34,17.89-51.32,18.22-21.93,51.24-21.93c2.49,0,4.91.09,7.27.29a71.5,71.5,0,0,1,16.09,3,56.37,56.37,0,0,1,26.94,18.07q15.6,18.75,18.32,51.85Z"/><g class="c"><path class="b" d="M91.31,282.16l-10.56,39.6H78.28l10.56-39.6Z"/><path class="b" d="M109.57,321.76V281.34h2.31v40.42Z"/><path class="b" d="M120.46,285.68v-3.52h2.31v3.52Zm0,36.08v-29.7h2.31v29.7Z"/><path class="b" d="M128.6,294.37v-2.31h16.45v2.31ZM134,321.76V288.71a14,14,0,0,1,.15-2.13,6.57,6.57,0,0,1,.54-1.81,6,6,0,0,1,1.07-1.56,5.34,5.34,0,0,1,1.47-1.1,6,6,0,0,1,1.8-.59,12.25,12.25,0,0,1,2.18-.18h3.85v2.09h-3.58a5.44,5.44,0,0,0-3.88,1.23c-.86.83-1.29,2.25-1.29,4.27v32.83Z"/><path class="b" d="M160.06,322.59a13.42,13.42,0,0,1-7.24-1.9,12.4,12.4,0,0,1-4.69-5.42,19.51,19.51,0,0,1-1.65-8.36,19.81,19.81,0,0,1,1.63-8.39,12.27,12.27,0,0,1,4.68-5.4,13.47,13.47,0,0,1,7.27-1.88,13.34,13.34,0,0,1,7.29,1.92,12.28,12.28,0,0,1,4.63,5.58,21.93,21.93,0,0,1,1.61,8.83h-2.47v-.77q-.17-6.41-3-9.83a9.89,9.89,0,0,0-8.05-3.42,10.07,10.07,0,0,0-8.19,3.5q-2.93,3.51-2.92,9.86t2.92,9.86a10,10,0,0,0,8.19,3.51,11.9,11.9,0,0,0,6.46-1.74,12.22,12.22,0,0,0,4.43-5l1.93,1.1a13.56,13.56,0,0,1-5.15,5.85A14.19,14.19,0,0,1,160.06,322.59Zm-12.1-15v-2.31h24.2v2.31Z"/><path class="b" d="M191.36,322.59a13.19,13.19,0,0,1-7.43-2,12.34,12.34,0,0,1-4.54-5.52,21.59,21.59,0,0,1,0-16.46,12.11,12.11,0,0,1,4.55-5.45,13.28,13.28,0,0,1,7.4-1.94,13.84,13.84,0,0,1,7.35,2,10.8,10.8,0,0,1,4.58,5.41l-2.2.93a9.39,9.39,0,0,0-3.81-4.43,11.18,11.18,0,0,0-5.92-1.56,10.61,10.61,0,0,0-6.19,1.69,10.18,10.18,0,0,0-3.66,4.7,19.13,19.13,0,0,0-1.26,7q.08,6.06,2.86,9.71t8.25,3.66a11.08,11.08,0,0,0,5.8-1.52,9.72,9.72,0,0,0,3.88-4.42l2.25,1a12.71,12.71,0,0,1-11.93,7.26Z"/><path class="b" d="M212.2,335,218,319.45l.05,4.62-13-32h2.53l11.66,28.82h-1.76l10.45-28.82h2.47L214.79,335Z"/><path class="b" d="M246.19,322.59a13.18,13.18,0,0,1-7.42-2,12.34,12.34,0,0,1-4.54-5.52,21.1,21.1,0,0,1-1.62-8.18,21.34,21.34,0,0,1,1.63-8.28,12.24,12.24,0,0,1,4.55-5.45,13.3,13.3,0,0,1,7.4-1.94,13.9,13.9,0,0,1,7.36,2,10.85,10.85,0,0,1,4.58,5.41l-2.2.93a9.5,9.5,0,0,0-3.81-4.43,11.22,11.22,0,0,0-5.93-1.56,10.65,10.65,0,0,0-6.19,1.69,10.09,10.09,0,0,0-3.65,4.7,19.34,19.34,0,0,0-1.27,7q.09,6.06,2.86,9.71t8.25,3.66a11.06,11.06,0,0,0,5.8-1.52,9.72,9.72,0,0,0,3.88-4.42l2.26,1a12.71,12.71,0,0,1-11.94,7.26Z"/><path class="b" d="M264.23,321.76V281.34h2.31v40.42Z"/><path class="b" d="M286.51,322.59a13.44,13.44,0,0,1-7.25-1.9,12.4,12.4,0,0,1-4.69-5.42,19.51,19.51,0,0,1-1.65-8.36,19.81,19.81,0,0,1,1.64-8.39,12.31,12.31,0,0,1,4.67-5.4,13.51,13.51,0,0,1,7.28-1.88,13.28,13.28,0,0,1,7.28,1.92,12.36,12.36,0,0,1,4.64,5.58,21.93,21.93,0,0,1,1.61,8.83h-2.48v-.77q-.17-6.41-3-9.83a9.88,9.88,0,0,0-8-3.42,10.09,10.09,0,0,0-8.2,3.5q-2.91,3.51-2.91,9.86t2.91,9.86a10.07,10.07,0,0,0,8.2,3.51,11.92,11.92,0,0,0,6.46-1.74,12.22,12.22,0,0,0,4.43-5l1.92,1.1a13.54,13.54,0,0,1-5.14,5.85A14.23,14.23,0,0,1,286.51,322.59Zm-12.1-15v-2.31h24.2v2.31Z"/><path class="b" d="M316.7,322.53a15.41,15.41,0,0,1-8.36-2.1,8.84,8.84,0,0,1-4.12-5.82l2.36-.44a7.26,7.26,0,0,0,3.48,4.4,12.75,12.75,0,0,0,6.7,1.65,10.74,10.74,0,0,0,6.42-1.73,5.53,5.53,0,0,0,2.38-4.7,4.56,4.56,0,0,0-.72-2.66,6.32,6.32,0,0,0-2.79-1.88,54.84,54.84,0,0,0-6.12-1.95,44.81,44.81,0,0,1-6.59-2.24,8.15,8.15,0,0,1-3.3-2.45,5.72,5.72,0,0,1-.94-3.34,6.61,6.61,0,0,1,1.4-4.18,9.18,9.18,0,0,1,3.88-2.84,15.09,15.09,0,0,1,5.72-1,15.34,15.34,0,0,1,5.89,1.08,10.79,10.79,0,0,1,4.24,3,8.12,8.12,0,0,1,1.86,4.47l-2.37.44a7.14,7.14,0,0,0-3.18-4.91,11.49,11.49,0,0,0-6.61-1.8,10.36,10.36,0,0,0-6.06,1.51,4.73,4.73,0,0,0-2.35,4.1,3.75,3.75,0,0,0,.79,2.4,6.89,6.89,0,0,0,2.78,1.83,40.68,40.68,0,0,0,5.5,1.71,41,41,0,0,1,6.94,2.28,8.16,8.16,0,0,1,3.5,2.69,6.89,6.89,0,0,1,1,3.83,7.54,7.54,0,0,1-3,6.34Q322,322.53,316.7,322.53Z"/></g></svg>