<svg xmlns="http://www.w3.org/2000/svg" viewBox="0 0 340.16 340.16"><defs><style>.a{fill:#43b883;}.b{fill:#364a5e;}.c{opacity:0.7;}</style></defs><path class="a" d="M221.88,123.74a78.66,78.66,0,0,0-3.38-15.87,76.69,76.69,0,0,0-3.19-8.19A68.13,68.13,0,0,0,195,73.89a66,66,0,0,0-31-13,77.53,77.53,0,0,0-8.43-1.12q-3.78-.26-7.39-.25H57V208.1H166l2.75-2.41a73,73,0,0,0,9.68-2.85,62.58,62.58,0,0,0,16.61-9.18A65,65,0,0,0,208,180.24q14.44-20,14.44-46.43A87.51,87.51,0,0,0,221.88,123.74ZM202,160a55.12,55.12,0,0,1-14.7,20.89,49.56,49.56,0,0,1-24,11.35q-4.12.69-8.17,1t-7,.34H71.47V74h76.69q2.93,0,7,.26a56.82,56.82,0,0,1,8.17,1.12,49.47,49.47,0,0,1,24,11.35,54.84,54.84,0,0,1,14,19.3c.23.52.45,1,.67,1.59a67.18,67.18,0,0,1,3.81,13.1A71.62,71.62,0,0,1,207,133.81,69.22,69.22,0,0,1,202,160Z"/><path class="b" d="M273.07,152.9Q263,130,244.09,118a74.71,74.71,0,0,0-25.59-10.12A96.88,96.88,0,0,0,201.31,106c-.92,0-1.85,0-2.79,0Q172,106,153,117.74t-29.23,33.79q-8.46,18.18-9.91,42.12c-.22,3.36-.32,6.8-.32,10.32,0,1.39,0,2.77,0,4.13h169.5Q283.13,175.78,273.07,152.9ZM129.39,193.66h0q2.1-32.34,17.89-51.32,18.22-21.93,51.24-21.93c2.49,0,4.91.09,7.27.29a71.5,71.5,0,0,1,16.09,3,56.37,56.37,0,0,1,26.94,18.07q15.6,18.75,18.32,51.85Z"/><g class="c"><path class="b" d="M43.34,246.73l-10.56,39.6H30.3l10.56-39.6Z"/><path class="b" d="M58.85,258.94v-2.31H75.29v2.31Zm5.39,27.39V253.27a14,14,0,0,1,.15-2.13,6.5,6.5,0,0,1,.54-1.8A6,6,0,0,1,66,247.77a5.77,5.77,0,0,1,1.47-1.1,6.68,6.68,0,0,1,1.8-.59,12.13,12.13,0,0,1,2.17-.18h3.85V248H71.72a5.44,5.44,0,0,0-3.88,1.24q-1.29,1.25-1.29,4.26v32.84Zm16.83-36.08v-3.52h2.31v3.52Zm0,36.08v-29.7h2.31v29.7Z"/><path class="b" d="M92,286.33V245.9h2.31v40.43Z"/><path class="b" d="M114.23,287.15a13.42,13.42,0,0,1-7.24-1.89,12.4,12.4,0,0,1-4.69-5.42,19.54,19.54,0,0,1-1.65-8.36,19.78,19.78,0,0,1,1.63-8.39,12.27,12.27,0,0,1,4.68-5.4,13.5,13.5,0,0,1,7.27-1.89,13.32,13.32,0,0,1,7.29,1.93,12.17,12.17,0,0,1,4.63,5.58,21.73,21.73,0,0,1,1.61,8.83h-2.47v-.77q-.17-6.4-3-9.83a9.87,9.87,0,0,0-8-3.43,10,10,0,0,0-8.19,3.51q-2.91,3.51-2.92,9.86t2.92,9.86a10.07,10.07,0,0,0,8.19,3.5,12,12,0,0,0,6.47-1.73,12.16,12.16,0,0,0,4.42-5l1.93,1.1a13.63,13.63,0,0,1-5.14,5.86A14.24,14.24,0,0,1,114.23,287.15Zm-12.1-15v-2.31h24.2v2.31Z"/><path class="b" d="M144.43,287.1a15.38,15.38,0,0,1-8.36-2.1,8.9,8.9,0,0,1-4.13-5.82l2.37-.44a7.25,7.25,0,0,0,3.48,4.4,12.71,12.71,0,0,0,6.69,1.65,10.7,10.7,0,0,0,6.42-1.73,5.52,5.52,0,0,0,2.38-4.71,4.53,4.53,0,0,0-.71-2.65,6.16,6.16,0,0,0-2.79-1.88,57.39,57.39,0,0,0-6.12-2,43.65,43.65,0,0,1-6.59-2.24,8,8,0,0,1-3.3-2.45,5.7,5.7,0,0,1-1-3.34,6.64,6.64,0,0,1,1.41-4.18,9.13,9.13,0,0,1,3.87-2.83,14.93,14.93,0,0,1,5.72-1,15.35,15.35,0,0,1,5.9,1.09,10.59,10.59,0,0,1,4.24,3,8,8,0,0,1,1.85,4.46l-2.36.44a7.14,7.14,0,0,0-3.18-4.9,11.44,11.44,0,0,0-6.61-1.81,10.42,10.42,0,0,0-6.06,1.52,4.73,4.73,0,0,0-2.36,4.09,3.76,3.76,0,0,0,.8,2.41,6.89,6.89,0,0,0,2.78,1.83,39.48,39.48,0,0,0,5.5,1.7,41.78,41.78,0,0,1,6.94,2.29,8.16,8.16,0,0,1,3.5,2.69,6.94,6.94,0,0,1,1,3.82,7.51,7.51,0,0,1-3,6.34Q149.72,287.09,144.43,287.1Z"/><path class="b" d="M165,299.53,170.77,284l.06,4.62-13-32h2.53L172,285.45h-1.76l10.45-28.82h2.48l-15.57,42.9Z"/><path class="b" d="M199,287.1a15.38,15.38,0,0,1-8.36-2.1,8.9,8.9,0,0,1-4.13-5.82l2.37-.44a7.25,7.25,0,0,0,3.48,4.4,12.71,12.71,0,0,0,6.69,1.65,10.7,10.7,0,0,0,6.42-1.73,5.52,5.52,0,0,0,2.38-4.71,4.6,4.6,0,0,0-.71-2.65,6.16,6.16,0,0,0-2.79-1.88,57.39,57.39,0,0,0-6.12-2,43.26,43.26,0,0,1-6.59-2.24,7.93,7.93,0,0,1-3.3-2.45,5.7,5.7,0,0,1-1-3.34,6.64,6.64,0,0,1,1.41-4.18,9.13,9.13,0,0,1,3.87-2.83,14.93,14.93,0,0,1,5.72-1,15.39,15.39,0,0,1,5.9,1.09,10.66,10.66,0,0,1,4.24,3,8,8,0,0,1,1.85,4.46l-2.36.44a7.14,7.14,0,0,0-3.18-4.9,11.44,11.44,0,0,0-6.61-1.81,10.47,10.47,0,0,0-6.07,1.52,4.75,4.75,0,0,0-2.35,4.09,3.76,3.76,0,0,0,.8,2.41,6.89,6.89,0,0,0,2.78,1.83,39.48,39.48,0,0,0,5.5,1.7,41.78,41.78,0,0,1,6.94,2.29,8.13,8.13,0,0,1,3.49,2.69,6.86,6.86,0,0,1,1,3.82,7.51,7.51,0,0,1-3,6.34Q204.28,287.09,199,287.1Z"/><path class="b" d="M212.9,258.94v-2.31h18.65v2.31Zm18.65,27.39a16.11,16.11,0,0,1-4.4.37,9.19,9.19,0,0,1-3.88-1,5.83,5.83,0,0,1-2.56-2.8,8.27,8.27,0,0,1-.74-2.95c-.05-1-.08-2.14-.08-3.43v-28.1h2.31v28.1c0,1.29,0,2.32,0,3.11a5.37,5.37,0,0,0,.56,2.23,4.35,4.35,0,0,0,3.14,2.43,15.78,15.78,0,0,0,5.61-.12Z"/><path class="b" d="M247.94,287.15a13.46,13.46,0,0,1-7.25-1.89,12.47,12.47,0,0,1-4.69-5.42,19.54,19.54,0,0,1-1.65-8.36,19.77,19.77,0,0,1,1.64-8.39,12.25,12.25,0,0,1,4.67-5.4,13.51,13.51,0,0,1,7.28-1.89,13.28,13.28,0,0,1,7.28,1.93,12.19,12.19,0,0,1,4.64,5.58,21.9,21.9,0,0,1,1.61,8.83H259v-.77q-.17-6.4-3-9.83a9.86,9.86,0,0,0-8-3.43,10.08,10.08,0,0,0-8.2,3.51q-2.91,3.51-2.91,9.86t2.91,9.86a10.1,10.1,0,0,0,8.2,3.5,11.91,11.91,0,0,0,6.46-1.73,12.18,12.18,0,0,0,4.43-5l1.92,1.1a13.57,13.57,0,0,1-5.14,5.86A14.23,14.23,0,0,1,247.94,287.15Zm-12.1-15v-2.31H260v2.31Z"/><path class="b" d="M266.47,286.33v-29.7h2.15v6.05h.16v23.65Zm17.66,0,.05-20.08a8.52,8.52,0,0,0-2.13-6.1,7.84,7.84,0,0,0-11.12.11,9.05,9.05,0,0,0-2.15,6.32l-2-.88a10.07,10.07,0,0,1,1.29-5.1,9.4,9.4,0,0,1,3.56-3.52,10.45,10.45,0,0,1,5.21-1.28,10.75,10.75,0,0,1,4.7,1.06,8.42,8.42,0,0,1,3.57,3.29,10.88,10.88,0,0,1,1.36,5.72l-.06,20.46Zm17.6,0,0-20.46a7.79,7.79,0,0,0-2.17-5.84,7.34,7.34,0,0,0-5.36-2.14,8.75,8.75,0,0,0-3.56.8,6.91,6.91,0,0,0-3,2.7,9.53,9.53,0,0,0-1.22,5.19h-2a11,11,0,0,1,1.14-5.69,9.27,9.27,0,0,1,3.59-3.75,10.36,10.36,0,0,1,5.28-1.34,9.23,9.23,0,0,1,9.68,9.9l0,20.63Z"/></g></svg>