<svg xmlns="http://www.w3.org/2000/svg" viewBox="0 0 340.16 340.16"><defs><style>.a{fill:#43b883;}.b{fill:#364a5e;}.c{opacity:0.7;}</style></defs><path class="a" d="M221.88,123.74a78.66,78.66,0,0,0-3.38-15.87,76.69,76.69,0,0,0-3.19-8.19A68.13,68.13,0,0,0,195,73.89a66,66,0,0,0-31-13,77.53,77.53,0,0,0-8.43-1.12q-3.78-.26-7.39-.25H57V208.1H166l2.75-2.41a73,73,0,0,0,9.68-2.85,62.58,62.58,0,0,0,16.61-9.18A65,65,0,0,0,208,180.24q14.44-20,14.44-46.43A87.51,87.51,0,0,0,221.88,123.74ZM202,160a55.12,55.12,0,0,1-14.7,20.89,49.56,49.56,0,0,1-24,11.35q-4.12.69-8.17,1t-7,.34H71.47V74h76.69q2.93,0,7,.26a56.82,56.82,0,0,1,8.17,1.12,49.47,49.47,0,0,1,24,11.35,54.84,54.84,0,0,1,14,19.3c.23.52.45,1,.67,1.59a67.18,67.18,0,0,1,3.81,13.1A71.62,71.62,0,0,1,207,133.81,69.22,69.22,0,0,1,202,160Z"/><path class="b" d="M273.07,152.9Q263,130,244.09,118a74.71,74.71,0,0,0-25.59-10.12A96.88,96.88,0,0,0,201.31,106c-.92,0-1.85,0-2.79,0Q172,106,153,117.74t-29.23,33.79q-8.46,18.18-9.91,42.12c-.22,3.36-.32,6.8-.32,10.32,0,1.39,0,2.77,0,4.13h169.5Q283.13,175.78,273.07,152.9ZM129.39,193.66h0q2.1-32.34,17.89-51.32,18.22-21.93,51.24-21.93c2.49,0,4.91.09,7.27.29a71.5,71.5,0,0,1,16.09,3,56.37,56.37,0,0,1,26.94,18.07q15.6,18.75,18.32,51.85Z"/><g class="c"><path class="b" d="M101.45,246.73l-10.56,39.6H88.41L99,246.73Z"/><path class="b" d="M125.48,286.33l-9.07-29.7h2.42l7.86,25.74,7.87-25.74H137l7.86,25.74,7.92-25.74h2.37l-9.08,29.7h-2.42l-7.86-25.8-7.87,25.8Z"/><path class="b" d="M159.85,286.33v-39.6H162V270.1h.17v16.23Zm22.06,0V270.6a20.8,20.8,0,0,0-.65-5.52,10.11,10.11,0,0,0-1.91-3.84,7.68,7.68,0,0,0-3.06-2.27,10.66,10.66,0,0,0-4.12-.75,10.39,10.39,0,0,0-4.63.95,8.25,8.25,0,0,0-3.09,2.6,11.3,11.3,0,0,0-1.74,3.8,18.49,18.49,0,0,0-.54,4.53l-2.15.06A17.32,17.32,0,0,1,161.7,262a10.56,10.56,0,0,1,4.44-4.55,13.62,13.62,0,0,1,10.17-.8,10.52,10.52,0,0,1,3.36,1.83,10.76,10.76,0,0,1,2.49,2.93,14.14,14.14,0,0,1,1.54,3.94,21.12,21.12,0,0,1,.52,4.86v16.17Z"/><path class="b" d="M203.09,287.15a13.43,13.43,0,0,1-7.25-1.89,12.4,12.4,0,0,1-4.69-5.42,22.14,22.14,0,0,1,0-16.75,12.25,12.25,0,0,1,4.67-5.4,13.51,13.51,0,0,1,7.28-1.89,13.28,13.28,0,0,1,7.28,1.93,12.25,12.25,0,0,1,4.64,5.58,21.9,21.9,0,0,1,1.61,8.83h-2.48v-.77q-.16-6.4-3-9.83a9.86,9.86,0,0,0-8-3.43,10.05,10.05,0,0,0-8.2,3.51q-2.91,3.51-2.92,9.86t2.92,9.86a10.08,10.08,0,0,0,8.2,3.5,11.91,11.91,0,0,0,6.46-1.73,12.09,12.09,0,0,0,4.42-5l1.93,1.1a13.57,13.57,0,0,1-5.14,5.86A14.23,14.23,0,0,1,203.09,287.15Zm-12.11-15v-2.31h24.2v2.31Z"/><path class="b" d="M221.62,286.33v-29.7h2.15v6.05h.16v23.65Zm22.06,0V270.6a20.8,20.8,0,0,0-.65-5.52,10.25,10.25,0,0,0-1.91-3.84,7.78,7.78,0,0,0-3.07-2.27,10.61,10.61,0,0,0-4.11-.75,10.36,10.36,0,0,0-4.63.95,8.21,8.21,0,0,0-3.1,2.6,11.29,11.29,0,0,0-1.73,3.8,18,18,0,0,0-.55,4.53l-2.14.06a17.33,17.33,0,0,1,1.67-8.21,10.56,10.56,0,0,1,4.44-4.55,13.65,13.65,0,0,1,10.18-.8,10.47,10.47,0,0,1,3.35,1.83,10.59,10.59,0,0,1,2.49,2.93,14.14,14.14,0,0,1,1.54,3.94,21.1,21.1,0,0,1,.53,4.86v16.17Z"/></g></svg>