<svg xmlns="http://www.w3.org/2000/svg" viewBox="0 0 340.16 340.16"><defs><style>.a{fill:#43b883;}.b{fill:#364a5e;}.c{opacity:0.7;}</style></defs><path class="a" d="M221.88,123.74a78.66,78.66,0,0,0-3.38-15.87,76.69,76.69,0,0,0-3.19-8.19A68.13,68.13,0,0,0,195,73.89a66,66,0,0,0-31-13,77.53,77.53,0,0,0-8.43-1.12q-3.78-.26-7.39-.25H57V208.1H166l2.75-2.41a73,73,0,0,0,9.68-2.85,62.58,62.58,0,0,0,16.61-9.18A65,65,0,0,0,208,180.24q14.44-20,14.44-46.43A87.51,87.51,0,0,0,221.88,123.74ZM202,160a55.12,55.12,0,0,1-14.7,20.89,49.56,49.56,0,0,1-24,11.35q-4.12.69-8.17,1t-7,.34H71.47V74h76.69q2.93,0,7,.26a56.82,56.82,0,0,1,8.17,1.12,49.47,49.47,0,0,1,24,11.35,54.84,54.84,0,0,1,14,19.3c.23.52.45,1,.67,1.59a67.18,67.18,0,0,1,3.81,13.1A71.62,71.62,0,0,1,207,133.81,69.22,69.22,0,0,1,202,160Z"/><path class="b" d="M273.07,152.9Q263,130,244.09,118a74.71,74.71,0,0,0-25.59-10.12A96.88,96.88,0,0,0,201.31,106c-.92,0-1.85,0-2.79,0Q172,106,153,117.74t-29.23,33.79q-8.46,18.18-9.91,42.12c-.22,3.36-.32,6.8-.32,10.32,0,1.39,0,2.77,0,4.13h169.5Q283.13,175.78,273.07,152.9ZM129.39,193.66h0q2.1-32.34,17.89-51.32,18.22-21.93,51.24-21.93c2.49,0,4.91.09,7.27.29a71.5,71.5,0,0,1,16.09,3,56.37,56.37,0,0,1,26.94,18.07q15.6,18.75,18.32,51.85Z"/><g class="c"><path class="b" d="M93,246.73l-10.56,39.6H79.91l10.56-39.6Z"/><path class="b" d="M121.49,287.1a15.41,15.41,0,0,1-8.36-2.1,8.92,8.92,0,0,1-4.12-5.82l2.36-.44a7.32,7.32,0,0,0,3.48,4.4,12.78,12.78,0,0,0,6.7,1.65,10.74,10.74,0,0,0,6.42-1.73,5.52,5.52,0,0,0,2.38-4.71,4.53,4.53,0,0,0-.72-2.65,6,6,0,0,0-2.79-1.88,55.9,55.9,0,0,0-6.12-2,43.46,43.46,0,0,1-6.58-2.24,7.93,7.93,0,0,1-3.3-2.45,5.7,5.7,0,0,1-1-3.34,6.69,6.69,0,0,1,1.4-4.18,9.22,9.22,0,0,1,3.88-2.83,14.93,14.93,0,0,1,5.72-1,15.39,15.39,0,0,1,5.9,1.09,10.56,10.56,0,0,1,4.23,3,8,8,0,0,1,1.86,4.46l-2.37.44a7.1,7.1,0,0,0-3.17-4.9,11.47,11.47,0,0,0-6.62-1.81,10.46,10.46,0,0,0-6.06,1.52,4.72,4.72,0,0,0-2.35,4.09,3.71,3.71,0,0,0,.8,2.41,6.84,6.84,0,0,0,2.77,1.83,39.92,39.92,0,0,0,5.5,1.7,42,42,0,0,1,7,2.29,8.13,8.13,0,0,1,3.49,2.69,6.85,6.85,0,0,1,1,3.82,7.5,7.5,0,0,1-3,6.34Q126.77,287.09,121.49,287.1Z"/><path class="b" d="M150.64,287.15a13.18,13.18,0,0,1-7.42-2,12.31,12.31,0,0,1-4.54-5.51,21.65,21.65,0,0,1,0-16.46,12.22,12.22,0,0,1,4.56-5.46,13.33,13.33,0,0,1,7.39-1.94,13.88,13.88,0,0,1,7.36,2,10.83,10.83,0,0,1,4.58,5.4l-2.2.94a9.5,9.5,0,0,0-3.81-4.43,11.2,11.2,0,0,0-5.93-1.57,10.67,10.67,0,0,0-6.18,1.69,10.08,10.08,0,0,0-3.66,4.71,19.29,19.29,0,0,0-1.27,7q.09,6,2.86,9.71t8.25,3.65a11.09,11.09,0,0,0,5.81-1.51,9.73,9.73,0,0,0,3.87-4.43l2.26,1a12.67,12.67,0,0,1-11.94,7.26Z"/><path class="b" d="M179.24,287.15a13.19,13.19,0,0,1-7.42-2,12.54,12.54,0,0,1-4.59-5.56,20,20,0,0,1-1.57-8.17,19.75,19.75,0,0,1,1.59-8.19,12.41,12.41,0,0,1,4.64-5.47,14.84,14.84,0,0,1,14.81,0,12.41,12.41,0,0,1,4.57,5.51,19.85,19.85,0,0,1,1.56,8.11,20.09,20.09,0,0,1-1.57,8.24,12.32,12.32,0,0,1-4.61,5.51A13.26,13.26,0,0,1,179.24,287.15Zm0-2.31q5.61,0,8.36-3.72a15.9,15.9,0,0,0,2.75-9.7q0-6.07-2.76-9.69t-8.35-3.62a10.7,10.7,0,0,0-6.23,1.71,10.23,10.23,0,0,0-3.67,4.7,18.47,18.47,0,0,0-1.21,6.9q0,6.06,2.82,9.74C172.83,283.62,175.6,284.84,179.24,284.84Z"/><path class="b" d="M198.66,299.53v-42.9h2.14V280H201v19.53Zm12.7-12.38a10.67,10.67,0,0,1-6.68-2.09,13,13,0,0,1-4.19-5.65,22.8,22.8,0,0,1,0-16,12.4,12.4,0,0,1,4.3-5.55,11.77,11.77,0,0,1,7-2,11.07,11.07,0,0,1,6.78,2.08,13,13,0,0,1,4.25,5.62,22.27,22.27,0,0,1,0,15.94,12.93,12.93,0,0,1-4.36,5.64A11.77,11.77,0,0,1,211.36,287.15Zm0-2.31a9.23,9.23,0,0,0,5.76-1.76,10.74,10.74,0,0,0,3.51-4.79,18.82,18.82,0,0,0,1.18-6.87,19.05,19.05,0,0,0-1.14-6.8,10.39,10.39,0,0,0-3.45-4.76,9.47,9.47,0,0,0-5.86-1.75,9.59,9.59,0,0,0-5.81,1.71,10.42,10.42,0,0,0-3.55,4.72,18.44,18.44,0,0,0-1.2,6.88,19,19,0,0,0,1.18,6.87,10.65,10.65,0,0,0,3.54,4.79A9.43,9.43,0,0,0,211.36,284.84Z"/><path class="b" d="M242.05,287.15a13.42,13.42,0,0,1-7.24-1.89,12.4,12.4,0,0,1-4.69-5.42,19.54,19.54,0,0,1-1.65-8.36,19.78,19.78,0,0,1,1.63-8.39,12.21,12.21,0,0,1,4.68-5.4,13.48,13.48,0,0,1,7.27-1.89,13.34,13.34,0,0,1,7.29,1.93,12.17,12.17,0,0,1,4.63,5.58,21.73,21.73,0,0,1,1.61,8.83h-2.47v-.77q-.17-6.4-3-9.83a9.87,9.87,0,0,0-8-3.43,10,10,0,0,0-8.19,3.51q-2.93,3.51-2.92,9.86t2.92,9.86a10.07,10.07,0,0,0,8.19,3.5,11.89,11.89,0,0,0,6.46-1.73,12.11,12.11,0,0,0,4.43-5l1.93,1.1a13.59,13.59,0,0,1-5.15,5.86A14.18,14.18,0,0,1,242.05,287.15Zm-12.1-15v-2.31h24.2v2.31Z"/></g></svg>