<svg xmlns="http://www.w3.org/2000/svg" viewBox="0 0 340.16 340.16"><defs><style>.a{fill:#43b883;}.b{fill:#364a5e;}.c{opacity:0.7;}</style></defs><path class="a" d="M221.88,123.74a78.66,78.66,0,0,0-3.38-15.87,76.69,76.69,0,0,0-3.19-8.19A68.13,68.13,0,0,0,195,73.89a66,66,0,0,0-31-13,77.53,77.53,0,0,0-8.43-1.12q-3.78-.26-7.39-.25H57V208.1H166l2.75-2.41a73,73,0,0,0,9.68-2.85,62.58,62.58,0,0,0,16.61-9.18A65,65,0,0,0,208,180.24q14.44-20,14.44-46.43A87.51,87.51,0,0,0,221.88,123.74ZM202,160a55.12,55.12,0,0,1-14.7,20.89,49.56,49.56,0,0,1-24,11.35q-4.12.69-8.17,1t-7,.34H71.47V74h76.69q2.93,0,7,.26a56.82,56.82,0,0,1,8.17,1.12,49.47,49.47,0,0,1,24,11.35,54.84,54.84,0,0,1,14,19.3c.23.52.45,1,.67,1.59a67.18,67.18,0,0,1,3.81,13.1A71.62,71.62,0,0,1,207,133.81,69.22,69.22,0,0,1,202,160Z"/><path class="b" d="M273.07,152.9Q263,130,244.09,118a74.71,74.71,0,0,0-25.59-10.12A96.88,96.88,0,0,0,201.31,106c-.92,0-1.85,0-2.79,0Q172,106,153,117.74t-29.23,33.79q-8.46,18.18-9.91,42.12c-.22,3.36-.32,6.8-.32,10.32,0,1.39,0,2.77,0,4.13h169.5Q283.13,175.78,273.07,152.9ZM129.39,193.66h0q2.1-32.34,17.89-51.32,18.22-21.93,51.24-21.93c2.49,0,4.91.09,7.27.29a71.5,71.5,0,0,1,16.09,3,56.37,56.37,0,0,1,26.94,18.07q15.6,18.75,18.32,51.85Z"/><g class="c"><path class="b" d="M55.88,246.73l-10.56,39.6H42.84l10.56-39.6Z"/><path class="b" d="M74.14,286.33V245.9h2.31v40.43Z"/><path class="b" d="M85,250.25v-3.52h2.31v3.52Zm0,36.08v-29.7h2.31v29.7Z"/><path class="b" d="M93.17,258.94v-2.31h16.44v2.31Zm5.39,27.39V253.27a14,14,0,0,1,.15-2.13,6.5,6.5,0,0,1,.54-1.8,6,6,0,0,1,1.07-1.57,5.77,5.77,0,0,1,1.47-1.1,6.68,6.68,0,0,1,1.8-.59,12.13,12.13,0,0,1,2.17-.18h3.85V248H106a5.43,5.43,0,0,0-3.88,1.24q-1.29,1.25-1.29,4.26v32.84Z"/><path class="b" d="M124.63,287.15a13.46,13.46,0,0,1-7.25-1.89,12.47,12.47,0,0,1-4.69-5.42,19.54,19.54,0,0,1-1.65-8.36,19.77,19.77,0,0,1,1.64-8.39,12.25,12.25,0,0,1,4.67-5.4,13.54,13.54,0,0,1,7.28-1.89,13.34,13.34,0,0,1,7.29,1.93,12.23,12.23,0,0,1,4.63,5.58,21.9,21.9,0,0,1,1.61,8.83h-2.48v-.77q-.17-6.4-3-9.83a9.86,9.86,0,0,0-8-3.43,10.08,10.08,0,0,0-8.2,3.51q-2.91,3.51-2.91,9.86t2.91,9.86a10.1,10.1,0,0,0,8.2,3.5,11.91,11.91,0,0,0,6.46-1.73,12.18,12.18,0,0,0,4.43-5l1.92,1.1a13.57,13.57,0,0,1-5.14,5.86A14.23,14.23,0,0,1,124.63,287.15Zm-12.1-15v-2.31h24.2v2.31Z"/><path class="b" d="M155.92,287.15a13.18,13.18,0,0,1-7.42-2,12.31,12.31,0,0,1-4.54-5.51,21.65,21.65,0,0,1,0-16.46,12.22,12.22,0,0,1,4.56-5.46,13.33,13.33,0,0,1,7.39-1.94,13.91,13.91,0,0,1,7.36,2,10.83,10.83,0,0,1,4.58,5.4l-2.2.94a9.5,9.5,0,0,0-3.81-4.43,11.2,11.2,0,0,0-5.93-1.57,10.67,10.67,0,0,0-6.18,1.69,10.08,10.08,0,0,0-3.66,4.71,19.29,19.29,0,0,0-1.27,7q.09,6,2.86,9.71t8.25,3.65a11.11,11.11,0,0,0,5.81-1.51,9.79,9.79,0,0,0,3.87-4.43l2.26,1a12.67,12.67,0,0,1-11.94,7.26Z"/><path class="b" d="M176.77,299.53,182.54,284l.06,4.62-13-32h2.53l11.66,28.82H182l10.45-28.82h2.48l-15.57,42.9Z"/><path class="b" d="M210.76,287.15a13.21,13.21,0,0,1-7.43-2,12.29,12.29,0,0,1-4.53-5.51,21.53,21.53,0,0,1,0-16.46,12.2,12.2,0,0,1,4.55-5.46,13.39,13.39,0,0,1,7.4-1.94,13.91,13.91,0,0,1,7.36,2,10.76,10.76,0,0,1,4.57,5.4l-2.2.94a9.39,9.39,0,0,0-3.81-4.43,11.16,11.16,0,0,0-5.92-1.57,10.71,10.71,0,0,0-6.19,1.69,10.2,10.2,0,0,0-3.66,4.71,19.52,19.52,0,0,0-1.26,7q.07,6,2.86,9.71t8.25,3.65a11.07,11.07,0,0,0,5.8-1.51,9.75,9.75,0,0,0,3.88-4.43l2.25,1a12.64,12.64,0,0,1-11.93,7.26Z"/><path class="b" d="M228.8,286.33V245.9h2.31v40.43Z"/><path class="b" d="M251.07,287.15a13.42,13.42,0,0,1-7.24-1.89,12.4,12.4,0,0,1-4.69-5.42,19.54,19.54,0,0,1-1.65-8.36,19.78,19.78,0,0,1,1.63-8.39,12.21,12.21,0,0,1,4.68-5.4,13.48,13.48,0,0,1,7.27-1.89,13.34,13.34,0,0,1,7.29,1.93,12.17,12.17,0,0,1,4.63,5.58,21.73,21.73,0,0,1,1.61,8.83h-2.47v-.77q-.17-6.4-3-9.83a9.87,9.87,0,0,0-8.05-3.43,10,10,0,0,0-8.19,3.51q-2.92,3.51-2.92,9.86t2.92,9.86a10.07,10.07,0,0,0,8.19,3.5,11.89,11.89,0,0,0,6.46-1.73,12.11,12.11,0,0,0,4.43-5l1.93,1.1a13.59,13.59,0,0,1-5.15,5.86A14.18,14.18,0,0,1,251.07,287.15Zm-12.1-15v-2.31h24.2v2.31Z"/><path class="b" d="M281.27,287.1a15.38,15.38,0,0,1-8.36-2.1,8.9,8.9,0,0,1-4.13-5.82l2.37-.44a7.25,7.25,0,0,0,3.48,4.4,12.71,12.71,0,0,0,6.69,1.65,10.7,10.7,0,0,0,6.42-1.73,5.52,5.52,0,0,0,2.38-4.71,4.6,4.6,0,0,0-.71-2.65,6.16,6.16,0,0,0-2.79-1.88,57.39,57.39,0,0,0-6.12-2,43.26,43.26,0,0,1-6.59-2.24,7.93,7.93,0,0,1-3.3-2.45,5.7,5.7,0,0,1-.95-3.34,6.69,6.69,0,0,1,1.4-4.18,9.22,9.22,0,0,1,3.88-2.83,14.93,14.93,0,0,1,5.72-1,15.39,15.39,0,0,1,5.9,1.09,10.66,10.66,0,0,1,4.24,3,8,8,0,0,1,1.85,4.46l-2.36.44a7.14,7.14,0,0,0-3.18-4.9,11.44,11.44,0,0,0-6.61-1.81,10.47,10.47,0,0,0-6.07,1.52,4.75,4.75,0,0,0-2.35,4.09,3.76,3.76,0,0,0,.8,2.41,6.89,6.89,0,0,0,2.78,1.83,39.48,39.48,0,0,0,5.5,1.7A41.78,41.78,0,0,1,288.1,272a8.13,8.13,0,0,1,3.49,2.69,6.86,6.86,0,0,1,1,3.82,7.51,7.51,0,0,1-3,6.34Q286.56,287.09,281.27,287.1Z"/></g></svg>