<svg xmlns="http://www.w3.org/2000/svg" viewBox="0 0 340.16 340.16"><defs><style>.a{fill:#43b883;}.b{fill:#364a5e;}.c{opacity:0.7;}</style></defs><path class="a" d="M221.88,123.74a78.66,78.66,0,0,0-3.38-15.87,76.69,76.69,0,0,0-3.19-8.19A68.13,68.13,0,0,0,195,73.89a66,66,0,0,0-31-13,77.53,77.53,0,0,0-8.43-1.12q-3.78-.26-7.39-.25H57V208.1H166l2.75-2.41a73,73,0,0,0,9.68-2.85,62.58,62.58,0,0,0,16.61-9.18A65,65,0,0,0,208,180.24q14.44-20,14.44-46.43A87.51,87.51,0,0,0,221.88,123.74ZM202,160a55.12,55.12,0,0,1-14.7,20.89,49.56,49.56,0,0,1-24,11.35q-4.12.69-8.17,1t-7,.34H71.47V74h76.69q2.93,0,7,.26a56.82,56.82,0,0,1,8.17,1.12,49.47,49.47,0,0,1,24,11.35,54.84,54.84,0,0,1,14,19.3c.23.52.45,1,.67,1.59a67.18,67.18,0,0,1,3.81,13.1A71.62,71.62,0,0,1,207,133.81,69.22,69.22,0,0,1,202,160Z"/><path class="b" d="M273.07,152.9Q263,130,244.09,118a74.71,74.71,0,0,0-25.59-10.12A96.88,96.88,0,0,0,201.31,106c-.92,0-1.85,0-2.79,0Q172,106,153,117.74t-29.23,33.79q-8.46,18.18-9.91,42.12c-.22,3.36-.32,6.8-.32,10.32,0,1.39,0,2.77,0,4.13h169.5Q283.13,175.78,273.07,152.9ZM129.39,193.66h0q2.1-32.34,17.89-51.32,18.22-21.93,51.24-21.93c2.49,0,4.91.09,7.27.29a71.5,71.5,0,0,1,16.09,3,56.37,56.37,0,0,1,26.94,18.07q15.6,18.75,18.32,51.85Z"/><g class="c"><path class="b" d="M123,246.73l-10.56,39.6H110l10.56-39.6Z"/><path class="b" d="M152.21,287a13,13,0,0,1-4.14-.63,10.78,10.78,0,0,1-3.35-1.83,10.91,10.91,0,0,1-2.49-2.93,14.21,14.21,0,0,1-1.54-4,21,21,0,0,1-.52-4.85V256.63h2.31v15.73a20.83,20.83,0,0,0,.64,5.5,10.2,10.2,0,0,0,1.91,3.86A7.78,7.78,0,0,0,148.1,284a10.61,10.61,0,0,0,4.11.74,10.33,10.33,0,0,0,4.63-.94,8.3,8.3,0,0,0,3.1-2.6,11.29,11.29,0,0,0,1.73-3.8,18,18,0,0,0,.55-4.54l2.15-.05a17.32,17.32,0,0,1-1.68,8.21,10.56,10.56,0,0,1-4.44,4.55A13,13,0,0,1,152.21,287Zm10.18-.66v-6.05h-.17V256.63h2.31v29.7Z"/><path class="b" d="M182.85,287.1a15.36,15.36,0,0,1-8.36-2.1,8.9,8.9,0,0,1-4.13-5.82l2.37-.44a7.27,7.27,0,0,0,3.47,4.4,12.78,12.78,0,0,0,6.7,1.65,10.7,10.7,0,0,0,6.42-1.73,5.52,5.52,0,0,0,2.38-4.71,4.6,4.6,0,0,0-.71-2.65,6.16,6.16,0,0,0-2.79-1.88,57.39,57.39,0,0,0-6.12-2,43.26,43.26,0,0,1-6.59-2.24,7.93,7.93,0,0,1-3.3-2.45,5.7,5.7,0,0,1-.95-3.34,6.69,6.69,0,0,1,1.4-4.18,9.22,9.22,0,0,1,3.88-2.83,14.93,14.93,0,0,1,5.72-1,15.39,15.39,0,0,1,5.9,1.09,10.56,10.56,0,0,1,4.23,3,8,8,0,0,1,1.86,4.46l-2.36.44a7.14,7.14,0,0,0-3.18-4.9,11.44,11.44,0,0,0-6.61-1.81,10.47,10.47,0,0,0-6.07,1.52,4.75,4.75,0,0,0-2.35,4.09,3.76,3.76,0,0,0,.8,2.41,6.89,6.89,0,0,0,2.78,1.83,39.48,39.48,0,0,0,5.5,1.7,41.78,41.78,0,0,1,6.94,2.29,8.13,8.13,0,0,1,3.49,2.69,6.86,6.86,0,0,1,1,3.82,7.51,7.51,0,0,1-3,6.34C189.13,286.33,186.37,287.1,182.85,287.1Z"/><path class="b" d="M212,287.15a13.46,13.46,0,0,1-7.25-1.89,12.4,12.4,0,0,1-4.69-5.42,19.54,19.54,0,0,1-1.65-8.36,19.77,19.77,0,0,1,1.64-8.39,12.25,12.25,0,0,1,4.67-5.4A13.51,13.51,0,0,1,212,255.8a13.28,13.28,0,0,1,7.28,1.93,12.25,12.25,0,0,1,4.64,5.58,21.9,21.9,0,0,1,1.61,8.83h-2.48v-.77q-.17-6.4-3-9.83a9.86,9.86,0,0,0-8-3.43,10.07,10.07,0,0,0-8.2,3.51q-2.91,3.51-2.91,9.86t2.91,9.86a10.09,10.09,0,0,0,8.2,3.5,11.91,11.91,0,0,0,6.46-1.73,12.18,12.18,0,0,0,4.43-5l1.92,1.1a13.57,13.57,0,0,1-5.14,5.86A14.23,14.23,0,0,1,212,287.15Zm-12.1-15v-2.31h24.2v2.31Z"/></g></svg>