<svg xmlns="http://www.w3.org/2000/svg" viewBox="0 0 340.16 340.16"><defs><style>.a{fill:#43b883;}.b{fill:#364a5e;}.c{opacity:0.7;}</style></defs><path class="a" d="M221.88,123.74a78.66,78.66,0,0,0-3.38-15.87,76.69,76.69,0,0,0-3.19-8.19A68.13,68.13,0,0,0,195,73.89a66,66,0,0,0-31-13,77.53,77.53,0,0,0-8.43-1.12q-3.78-.26-7.39-.25H57V208.1H166l2.75-2.41a73,73,0,0,0,9.68-2.85,62.58,62.58,0,0,0,16.61-9.18A65,65,0,0,0,208,180.24q14.44-20,14.44-46.43A87.51,87.51,0,0,0,221.88,123.74ZM202,160a55.12,55.12,0,0,1-14.7,20.89,49.56,49.56,0,0,1-24,11.35q-4.12.69-8.17,1t-7,.34H71.47V74h76.69q2.93,0,7,.26a56.82,56.82,0,0,1,8.17,1.12,49.47,49.47,0,0,1,24,11.35,54.84,54.84,0,0,1,14,19.3c.23.52.45,1,.67,1.59a67.18,67.18,0,0,1,3.81,13.1A71.62,71.62,0,0,1,207,133.81,69.22,69.22,0,0,1,202,160Z"/><path class="b" d="M273.07,152.9Q263,130,244.09,118a74.71,74.71,0,0,0-25.59-10.12A96.88,96.88,0,0,0,201.31,106c-.92,0-1.85,0-2.79,0Q172,106,153,117.74t-29.23,33.79q-8.46,18.18-9.91,42.12c-.22,3.36-.32,6.8-.32,10.32,0,1.39,0,2.77,0,4.13h169.5Q283.13,175.78,273.07,152.9ZM129.39,193.66h0q2.1-32.34,17.89-51.32,18.22-21.93,51.24-21.93c2.49,0,4.91.09,7.27.29a71.5,71.5,0,0,1,16.09,3,56.37,56.37,0,0,1,26.94,18.07q15.6,18.75,18.32,51.85Z"/><g class="c"><path class="b" d="M93.75,246.73l-10.56,39.6H80.71l10.56-39.6Z"/><path class="b" d="M117.78,286.33l-9.07-29.7h2.42L119,282.37l7.87-25.74h2.42l7.86,25.74,7.92-25.74h2.37l-9.08,29.7h-2.42l-7.86-25.8-7.87,25.8Z"/><path class="b" d="M159.14,287.15a12.18,12.18,0,0,1-5.75-1.21,8.25,8.25,0,0,1-3.41-3.19,8.53,8.53,0,0,1-1.12-4.29,7.69,7.69,0,0,1,1.14-4.33,8.18,8.18,0,0,1,3-2.71,14.86,14.86,0,0,1,4-1.43q2.58-.51,5.54-.92c2-.26,3.79-.49,5.46-.67s2.92-.33,3.74-.44l-.82.55q.13-5.25-1.91-7.82t-7.22-2.58a9.91,9.91,0,0,0-6,1.67,8.9,8.9,0,0,0-3.18,5.1l-2.53-.66a10.21,10.21,0,0,1,4.06-6.27,13.23,13.23,0,0,1,7.77-2.15,13,13,0,0,1,6.87,1.68,8.47,8.47,0,0,1,3.74,4.54,11.68,11.68,0,0,1,.55,2.67,29.07,29.07,0,0,1,.17,3.05v18.59H171v-8.14l1.1.05a11.23,11.23,0,0,1-4.7,6.58A14.69,14.69,0,0,1,159.14,287.15Zm-.11-2.31a13.21,13.21,0,0,0,5.68-1.15,10,10,0,0,0,4-3.34,11.82,11.82,0,0,0,1.94-5.24,24.48,24.48,0,0,0,.22-3.3v-2.53l1.21.93c-1,.1-2.32.22-4,.37s-3.53.36-5.43.61a45,45,0,0,0-5.17.95,13.58,13.58,0,0,0-2.78,1,6.87,6.87,0,0,0-2.41,2,5.37,5.37,0,0,0-1,3.33,6.65,6.65,0,0,0,.71,2.89,5.88,5.88,0,0,0,2.41,2.44A9.18,9.18,0,0,0,159,284.84Z"/><path class="b" d="M176.8,258.94v-2.31h18.64v2.31Zm18.64,27.39a16.08,16.08,0,0,1-4.4.37,9.19,9.19,0,0,1-3.88-1,5.81,5.81,0,0,1-2.55-2.8,8.29,8.29,0,0,1-.75-2.95c-.05-1-.08-2.14-.08-3.43v-28.1h2.31v28.1c0,1.29,0,2.32,0,3.11a5.38,5.38,0,0,0,.57,2.23,4.34,4.34,0,0,0,3.13,2.43,15.78,15.78,0,0,0,5.61-.12Z"/><path class="b" d="M211.83,287.15a13.15,13.15,0,0,1-7.42-2,12.25,12.25,0,0,1-4.54-5.51,21.65,21.65,0,0,1,0-16.46,12.2,12.2,0,0,1,4.55-5.46,13.39,13.39,0,0,1,7.4-1.94,13.91,13.91,0,0,1,7.36,2,10.83,10.83,0,0,1,4.58,5.4l-2.2.94a9.5,9.5,0,0,0-3.81-4.43,11.22,11.22,0,0,0-5.93-1.57,10.73,10.73,0,0,0-6.19,1.69,10.12,10.12,0,0,0-3.65,4.71,19.29,19.29,0,0,0-1.27,7q.09,6,2.86,9.71t8.25,3.65a11,11,0,0,0,5.8-1.51,9.75,9.75,0,0,0,3.88-4.43l2.26,1a12.67,12.67,0,0,1-11.94,7.26Z"/><path class="b" d="M229.32,286.33v-39.6h2.15V270.1h.16v16.23Zm22.06,0V270.6a20.8,20.8,0,0,0-.65-5.52,10.25,10.25,0,0,0-1.91-3.84,7.78,7.78,0,0,0-3.07-2.27,10.61,10.61,0,0,0-4.11-.75,10.36,10.36,0,0,0-4.63.95,8.21,8.21,0,0,0-3.1,2.6,11.29,11.29,0,0,0-1.73,3.8,18,18,0,0,0-.55,4.53l-2.15.06a17.32,17.32,0,0,1,1.68-8.21,10.56,10.56,0,0,1,4.44-4.55,13.65,13.65,0,0,1,10.18-.8,10.58,10.58,0,0,1,3.35,1.83,10.76,10.76,0,0,1,2.49,2.93,14.14,14.14,0,0,1,1.54,3.94,21.12,21.12,0,0,1,.52,4.86v16.17Z"/></g></svg>