<svg xmlns="http://www.w3.org/2000/svg" viewBox="0 0 411.02 411.02"><defs><style>.a{fill:#43b883;}.b{fill:#364a5e;}.c{opacity:0.7;}</style></defs><path class="a" d="M257.32,159.17a78.66,78.66,0,0,0-3.38-15.87,76.69,76.69,0,0,0-3.19-8.19,68.13,68.13,0,0,0-20.29-25.79,66,66,0,0,0-31-13A77.53,77.53,0,0,0,191,95.21Q187.21,95,183.6,95H92.46V243.53h109l2.75-2.41a73,73,0,0,0,9.68-2.85,62.58,62.58,0,0,0,16.61-9.18,65,65,0,0,0,12.92-13.42q14.44-19.95,14.44-46.43A87.51,87.51,0,0,0,257.32,159.17Zm-19.9,36.3a55.12,55.12,0,0,1-14.7,20.89,49.56,49.56,0,0,1-24,11.35q-4.12.69-8.17,1t-7,.34H106.91V109.4H183.6q2.93,0,7,.26a56.82,56.82,0,0,1,8.17,1.12,49.47,49.47,0,0,1,24,11.35,54.84,54.84,0,0,1,14,19.3c.23.52.45,1,.67,1.59a67.18,67.18,0,0,1,3.81,13.1,71.62,71.62,0,0,1,1.18,13.12A69.22,69.22,0,0,1,237.42,195.47Z"/><path class="b" d="M308.51,188.33q-10.06-22.86-29-34.91a74.71,74.71,0,0,0-25.59-10.12,96.88,96.88,0,0,0-17.19-1.87c-.92,0-1.85,0-2.79,0q-26.47,0-45.48,11.78T159.25,187q-8.46,18.18-9.91,42.12c-.22,3.36-.32,6.8-.32,10.32,0,1.39,0,2.77,0,4.13h169.5Q318.57,211.21,308.51,188.33ZM164.83,229.09h0q2.1-32.34,17.89-51.32,18.22-21.93,51.24-21.93c2.49,0,4.91.09,7.27.29a71.5,71.5,0,0,1,16.09,3,56.37,56.37,0,0,1,26.94,18.07q15.6,18.75,18.32,51.85Z"/><g class="c"><path class="b" d="M129.18,282.16l-10.56,39.6h-2.47l10.56-39.6Z"/><path class="b" d="M153.21,321.76l-9.07-29.7h2.42l7.86,25.74,7.87-25.74h2.42l7.87,25.74,7.92-25.74h2.36l-9.07,29.7h-2.42L163.5,296l-7.87,25.79Z"/><path class="b" d="M194.58,322.59a12.25,12.25,0,0,1-5.75-1.21,8.25,8.25,0,0,1-3.41-3.19,8.54,8.54,0,0,1-1.13-4.29,7.66,7.66,0,0,1,1.14-4.33,8.12,8.12,0,0,1,3-2.71,14.33,14.33,0,0,1,4-1.43q2.59-.53,5.55-.92t5.45-.68c1.67-.18,2.92-.33,3.75-.44l-.83.55q.14-5.25-1.91-7.82c-1.37-1.72-3.77-2.57-7.22-2.57a9.93,9.93,0,0,0-6,1.66,8.9,8.9,0,0,0-3.18,5.1l-2.52-.66a10.2,10.2,0,0,1,4.05-6.27,13.22,13.22,0,0,1,7.77-2.14,13,13,0,0,1,6.87,1.67,8.46,8.46,0,0,1,3.74,4.54,11.17,11.17,0,0,1,.55,2.67,29.07,29.07,0,0,1,.17,3.05v18.59h-2.14v-8.14l1.09.06a11.2,11.2,0,0,1-4.7,6.57A14.57,14.57,0,0,1,194.58,322.59Zm-.12-2.31a13.22,13.22,0,0,0,5.68-1.16,9.91,9.91,0,0,0,4-3.34,11.77,11.77,0,0,0,1.94-5.24,22.85,22.85,0,0,0,.22-3.3v-2.53l1.21.94-4,.37c-1.71.15-3.52.36-5.43.6a47.22,47.22,0,0,0-5.17.95,13.08,13.08,0,0,0-2.78,1.05,6.71,6.71,0,0,0-2.4,2,5.4,5.4,0,0,0-1,3.33,6.58,6.58,0,0,0,.71,2.89,5.9,5.9,0,0,0,2.41,2.45A9.18,9.18,0,0,0,194.46,320.28Z"/><path class="b" d="M212.23,294.37v-2.31h18.64v2.31Zm18.64,27.39a15.7,15.7,0,0,1-4.4.37,9.14,9.14,0,0,1-3.87-1A5.85,5.85,0,0,1,220,318.3a8.12,8.12,0,0,1-.74-3q-.09-1.5-.09-3.42V283.81h2.31v28.11c0,1.28,0,2.32,0,3.1a5.22,5.22,0,0,0,.56,2.23,4.37,4.37,0,0,0,3.13,2.44,15.58,15.58,0,0,0,5.61-.13Z"/><path class="b" d="M247.26,322.59a13.18,13.18,0,0,1-7.42-2,12.34,12.34,0,0,1-4.54-5.52,21.59,21.59,0,0,1,0-16.46,12.11,12.11,0,0,1,4.55-5.45,13.27,13.27,0,0,1,7.39-1.94,13.87,13.87,0,0,1,7.36,2,10.85,10.85,0,0,1,4.58,5.41l-2.2.93a9.5,9.5,0,0,0-3.81-4.43,11.19,11.19,0,0,0-5.93-1.56,10.6,10.6,0,0,0-6.18,1.69,10.18,10.18,0,0,0-3.66,4.7,19.34,19.34,0,0,0-1.27,7q.09,6.06,2.86,9.71t8.25,3.66a11.09,11.09,0,0,0,5.81-1.52,9.7,9.7,0,0,0,3.87-4.42l2.26,1a12.71,12.71,0,0,1-11.94,7.26Z"/><path class="b" d="M264.75,321.76v-39.6h2.15v23.38h.16v16.22Zm22.06,0V306a20.77,20.77,0,0,0-.65-5.51,10.3,10.3,0,0,0-1.91-3.85,7.71,7.71,0,0,0-3.07-2.27,10.61,10.61,0,0,0-4.11-.74,10.22,10.22,0,0,0-4.63.95,8.15,8.15,0,0,0-3.09,2.59,11.3,11.3,0,0,0-1.74,3.8,18.51,18.51,0,0,0-.55,4.54l-2.14,0a17.32,17.32,0,0,1,1.68-8.21,10.5,10.5,0,0,1,4.44-4.55,13.62,13.62,0,0,1,10.17-.8,10.49,10.49,0,0,1,5.85,4.76,14.52,14.52,0,0,1,1.54,3.95,21.53,21.53,0,0,1,.52,4.85v16.17Z"/></g></svg>